<?xml version="1.0" encoding="UTF-8"?><svg id="Layer_1" xmlns="http://www.w3.org/2000/svg" viewBox="0 0 47.11 18.18"><defs><style>.cls-1{fill:#cb9ac6;}</style></defs><path class="cls-1" d="M0,14.08v-.56c.45-.21,.98-.36,1.58-.46V1.6c-.3-.06-.58-.14-.85-.22-.27-.08-.52-.17-.73-.26V.56H1.97c.22,0,.48,0,.77-.02,.3-.01,.6-.03,.92-.05,.32-.02,.62-.04,.91-.06,.29-.02,.53-.03,.72-.03,2.19,0,3.87,.59,5.05,1.76,1.18,1.17,1.77,2.83,1.77,4.98,0,1.02-.14,1.96-.43,2.83-.29,.87-.73,1.62-1.32,2.25-.59,.63-1.34,1.13-2.25,1.49-.91,.36-1.98,.54-3.22,.54-.19,0-.41,0-.66-.03-.24-.02-.5-.04-.77-.06-.27-.02-.54-.04-.82-.06-.28-.02-.54-.03-.78-.03H0ZM5.02,1.41c-.33,0-.66,0-.97,0s-.55,.03-.73,.07V13.19c.06,.01,.18,.02,.35,.03,.17,0,.35,.01,.54,.02,.19,0,.38,0,.55,0h.38c.89,0,1.64-.17,2.26-.5,.62-.33,1.12-.78,1.52-1.34,.39-.56,.68-1.21,.86-1.94,.18-.73,.27-1.51,.27-2.32,0-.63-.09-1.28-.26-1.96-.17-.68-.46-1.29-.85-1.85-.39-.56-.91-1.02-1.56-1.38-.64-.36-1.43-.54-2.36-.54ZM15.16,5.54l-1.27-.15v-.5c.37-.18,.78-.33,1.23-.44,.44-.11,.88-.2,1.3-.26h.48V13.25c0,.91-.12,1.67-.35,2.28-.23,.6-.5,1.09-.81,1.47-.31,.37-.62,.65-.95,.83-.32,.18-.58,.3-.77,.35l-.23-.37c.15-.08,.31-.21,.47-.41,.16-.19,.31-.46,.44-.8,.14-.34,.24-.76,.33-1.25,.08-.49,.13-1.07,.13-1.74V5.54Zm-.39-4.4c0-.35,.11-.62,.34-.83,.23-.21,.52-.31,.9-.31s.67,.1,.89,.31c.22,.21,.33,.48,.33,.83s-.11,.62-.33,.82c-.22,.2-.52,.3-.89,.3s-.67-.1-.9-.3c-.23-.2-.34-.47-.34-.82Zm8.98,12.94h-4.29v-.48c.19-.1,.39-.19,.6-.26s.43-.14,.68-.2V5.54l-1.27-.15v-.5c.37-.15,.78-.29,1.22-.41,.44-.12,.88-.21,1.31-.29h.48V13.14c.26,.06,.49,.13,.7,.2s.4,.16,.58,.26v.48ZM20.38,1.14c0-.35,.11-.62,.34-.83,.23-.21,.52-.31,.9-.31s.67,.1,.89,.31c.22,.21,.33,.48,.33,.83s-.11,.62-.33,.82c-.22,.2-.52,.3-.89,.3s-.67-.1-.9-.3c-.23-.2-.34-.47-.34-.82Zm15.26,12.94h-4.15v-.48c.35-.18,.73-.33,1.14-.46v-4.58c0-.98-.14-1.75-.42-2.32s-.8-.85-1.54-.85c-.32,0-.62,.06-.9,.17-.28,.12-.52,.27-.73,.47-.21,.2-.4,.43-.55,.68-.16,.25-.28,.51-.37,.78v5.64c.4,.08,.79,.23,1.16,.46v.48h-4.17v-.48c.32-.17,.75-.32,1.28-.46V5.54l-1.28-.15v-.5c.33-.14,.72-.27,1.16-.39,.44-.12,.89-.22,1.37-.31h.48v2.16h.02c.27-.59,.66-1.1,1.17-1.53s1.12-.64,1.84-.64c.52,0,.98,.06,1.38,.18,.41,.12,.74,.34,1.01,.65s.48,.72,.62,1.25,.21,1.18,.21,1.98v4.89c.51,.09,.94,.24,1.27,.46v.48Zm11.47,0h-4.15v-.48c.35-.18,.73-.33,1.14-.46v-4.58c0-.98-.14-1.75-.42-2.32s-.8-.85-1.54-.85c-.32,0-.62,.06-.9,.17-.28,.12-.52,.27-.73,.47-.21,.2-.4,.43-.55,.68-.16,.25-.28,.51-.37,.78v5.64c.4,.08,.79,.23,1.16,.46v.48h-4.17v-.48c.32-.17,.75-.32,1.28-.46V5.54l-1.28-.15v-.5c.33-.14,.72-.27,1.16-.39,.44-.12,.89-.22,1.37-.31h.48v2.16h.02c.27-.59,.66-1.1,1.17-1.53s1.12-.64,1.84-.64c.52,0,.98,.06,1.38,.18,.41,.12,.74,.34,1.01,.65s.48,.72,.62,1.25,.21,1.18,.21,1.98v4.89c.51,.09,.94,.24,1.27,.46v.48Z"/></svg>